<?xml version="1.0" encoding="utf-8"?>
<!-- Generator: Adobe Illustrator 24.3.0, SVG Export Plug-In . SVG Version: 6.00 Build 0)  -->
<svg version="1.1" id="Layer_1" xmlns="http://www.w3.org/2000/svg" xmlns:xlink="http://www.w3.org/1999/xlink" x="0px" y="0px"
	 viewBox="0 0 800.47 187.59" style="enable-background:new 0 0 800.47 187.59;" xml:space="preserve">
<style type="text/css">
	.st0{fill:#439539;}
	.st1{fill:#474747;}
	.st2{fill:#FFFFFF;}
</style>
<g>
	<g>
		<path class="st0" d="M202.47,37.37H60.26c-6.77,0-12.25,4.75-12.25,10.62v91.19c0,5.86,5.49,10.62,12.25,10.62h142.21
			c6.77,0,12.25-4.75,12.25-10.62V47.99C214.72,42.13,209.24,37.37,202.47,37.37z M117.28,122.9c-4.14,4.64-11.36,6.97-21.65,6.97
			H62.84v-74.9h29.15c5.07,0,9.45,0.61,13.13,1.82c3.68,1.22,6.45,2.86,8.3,4.93c3.36,3.86,5.04,8.22,5.04,13.07
			c0,5.86-1.89,10.22-5.68,13.07c-1.29,1-2.18,1.63-2.68,1.87c-0.5,0.25-1.39,0.66-2.68,1.23c4.64,1,8.34,3.09,11.09,6.27
			c2.75,3.18,4.13,7.13,4.13,11.84C122.63,114.29,120.85,118.9,117.28,122.9z M199.89,129.86h-16.72V100.4h-29.79v29.47h-16.72
			v-74.9h16.72v31.29h29.79V54.96h16.72V129.86z"/>
		<path class="st0" d="M97.83,83.79c2.25-1,3.38-3.16,3.38-6.48c0-3.32-1.04-5.52-3.11-6.59c-2.07-1.07-5.57-1.61-10.5-1.61h-8.04
			v16.18h7.93C92.13,85.29,95.58,84.79,97.83,83.79z"/>
		<path class="st0" d="M101.58,100.13c-2.54-1.11-6.59-1.66-12.16-1.66h-9.86v17.25h11.47c4.79,0,8.37-0.59,10.77-1.77
			c2.39-1.18,3.59-3.5,3.59-6.97C105.38,103.52,104.11,101.24,101.58,100.13z"/>
	</g>
	<g>
		<path class="st1" d="M279.08,84.68h-18.92V41.45h16.82c2.93,0,5.45,0.35,7.58,1.05c2.12,0.7,3.72,1.65,4.79,2.84
			c1.94,2.23,2.91,4.74,2.91,7.54c0,3.38-1.09,5.9-3.28,7.54c-0.74,0.58-1.26,0.94-1.55,1.08c-0.29,0.15-0.8,0.38-1.55,0.71
			c2.68,0.58,4.81,1.78,6.4,3.62c1.59,1.83,2.38,4.11,2.38,6.83c0,3.01-1.03,5.67-3.09,7.98C289.18,83.34,285.02,84.68,279.08,84.68
			z M269.81,58.95h4.58c2.68,0,4.67-0.29,5.97-0.87c1.3-0.58,1.95-1.82,1.95-3.74s-0.6-3.18-1.79-3.8c-1.2-0.62-3.22-0.93-6.06-0.93
			h-4.64V58.95z M269.81,76.52h6.62c2.76,0,4.83-0.34,6.21-1.02c1.38-0.68,2.07-2.02,2.07-4.02c0-2-0.73-3.32-2.2-3.96
			c-1.46-0.64-3.8-0.96-7.02-0.96h-5.69V76.52z"/>
		<path class="st1" d="M338.26,41.45v8.6h-21.52v8.9h19.36v8.22h-19.36v8.97h22.2v8.53H307.1V41.45H338.26z"/>
		<path class="st1" d="M370.17,49.8v34.88h-9.65V49.8h-12.24v-8.35h34.14v8.35H370.17z"/>
		<path class="st1" d="M412.1,49.8v34.88h-9.65V49.8h-12.24v-8.35h34.14v8.35H412.1z"/>
		<path class="st1" d="M466.89,41.45v8.6h-21.52v8.9h19.36v8.22h-19.36v8.97h22.2v8.53h-31.85V41.45H466.89z"/>
		<path class="st1" d="M515.56,55.8c0,6.93-2.74,11.4-8.22,13.42l10.95,15.46H506.4l-9.58-13.79h-6.68v13.79h-9.65V41.45h16.39
			c6.72,0,11.51,1.13,14.38,3.4S515.56,50.77,515.56,55.8z M503.93,60.93c1.2-1.07,1.79-2.77,1.79-5.1s-0.62-3.93-1.86-4.79
			c-1.24-0.87-3.4-1.3-6.49-1.3h-7.24v12.8h7.05C500.49,62.54,502.73,62,503.93,60.93z"/>
		<path class="st1" d="M577.27,41.45h9.65v43.23h-9.65V67.67h-17.19v17.01h-9.65V41.45h9.65v18.06h17.19V41.45z"/>
		<path class="st1" d="M638.24,78.71c-4.37,4.27-9.75,6.4-16.14,6.4c-6.39,0-11.77-2.13-16.14-6.4c-4.37-4.27-6.55-9.57-6.55-15.92
			c0-6.35,2.18-11.66,6.55-15.92c4.37-4.27,9.75-6.4,16.14-6.4c6.39,0,11.77,2.13,16.14,6.4c4.37,4.27,6.55,9.58,6.55,15.92
			C644.8,69.14,642.61,74.44,638.24,78.71z M634.97,62.82c0-3.85-1.24-7.14-3.71-9.86c-2.47-2.72-5.51-4.08-9.12-4.08
			s-6.65,1.36-9.12,4.08s-3.71,6.01-3.71,9.86c0,3.86,1.24,7.13,3.71,9.83s5.51,4.05,9.12,4.05s6.65-1.35,9.12-4.05
			C633.73,69.95,634.97,66.67,634.97,62.82z"/>
		<path class="st1" d="M696,57.47l-11.69,23.62h-5.75l-11.63-23.62v27.21h-9.65V41.45h13.05l11.13,23.75l11.19-23.75h12.99v43.23
			H696V57.47z"/>
		<path class="st1" d="M751.78,41.45v8.6h-21.52v8.9h19.36v8.22h-19.36v8.97h22.2v8.53h-31.85V41.45H751.78z"/>
	</g>
	<g>
		<path class="st0" d="M283.78,117.21c2.51,2.13,3.76,5.41,3.76,9.83c0,4.42-1.29,7.66-3.87,9.71c-2.58,2.05-6.51,3.07-11.81,3.07
			h-4.76v9.99h-7.99V114h12.65C277.26,114,281.27,115.07,283.78,117.21z M277.91,131.29c0.96-1.08,1.43-2.65,1.43-4.71
			c0-2.07-0.62-3.53-1.87-4.4c-1.25-0.87-3.18-1.31-5.81-1.31h-4.56v12.04h5.38C275.15,132.9,276.96,132.37,277.91,131.29z"/>
		<path class="st0" d="M327.29,125.89c0,5.74-2.27,9.44-6.81,11.11l9.06,12.8h-9.83l-7.94-11.42h-5.53v11.42h-7.99V114h13.57
			c5.57,0,9.53,0.94,11.91,2.82C326.1,118.7,327.29,121.72,327.29,125.89z M317.66,130.14c0.99-0.89,1.49-2.3,1.49-4.23
			c0-1.93-0.51-3.25-1.54-3.97c-1.02-0.72-2.82-1.08-5.38-1.08h-5.99v10.6h5.84C314.81,131.47,316.67,131.03,317.66,130.14z"/>
		<path class="st0" d="M369.69,144.86c-3.62,3.53-8.08,5.3-13.37,5.3c-5.29,0-9.75-1.77-13.37-5.3c-3.62-3.53-5.43-7.93-5.43-13.19
			c0-5.26,1.81-9.65,5.43-13.19c3.62-3.53,8.07-5.3,13.37-5.3c5.29,0,9.75,1.77,13.37,5.3c3.62,3.53,5.43,7.93,5.43,13.19
			C375.12,136.93,373.31,141.33,369.69,144.86z M366.98,131.7c0-3.19-1.02-5.92-3.07-8.17c-2.05-2.25-4.57-3.38-7.55-3.38
			c-2.99,0-5.51,1.13-7.55,3.38c-2.05,2.25-3.07,4.98-3.07,8.17s1.02,5.91,3.07,8.14c2.05,2.24,4.57,3.36,7.55,3.36
			c2.99,0,5.51-1.12,7.55-3.36C365.95,137.61,366.98,134.89,366.98,131.7z"/>
		<path class="st0" d="M410.92,114v7.02h-16.59v7.73h15.77v7.02h-15.77v14.03h-7.99V114H410.92z"/>
		<path class="st0" d="M447.95,114v7.12h-17.82v7.38h16.03v6.81h-16.03v7.43h18.39v7.07h-26.38V114H447.95z"/>
		<path class="st0" d="M468.46,121.15c-0.77,0.63-1.15,1.47-1.15,2.51c0,1.04,0.47,1.87,1.41,2.48c0.94,0.62,3.11,1.34,6.5,2.18
			c3.4,0.84,6.03,2.09,7.91,3.76c1.88,1.67,2.82,4.12,2.82,7.32s-1.2,5.81-3.61,7.81c-2.41,2-5.58,3-9.5,3
			c-5.67,0-10.77-2.1-15.31-6.3l4.76-5.84c3.86,3.38,7.43,5.07,10.71,5.07c1.47,0,2.62-0.32,3.46-0.95
			c0.84-0.63,1.25-1.49,1.25-2.56c0-1.08-0.44-1.93-1.33-2.56c-0.89-0.63-2.65-1.27-5.28-1.92c-4.17-0.99-7.21-2.28-9.14-3.87
			c-1.93-1.59-2.89-4.08-2.89-7.48s1.22-6.02,3.66-7.86s5.49-2.77,9.14-2.77c2.39,0,4.78,0.41,7.17,1.23
			c2.39,0.82,4.47,1.98,6.25,3.48l-4.05,5.84c-3.11-2.36-6.32-3.53-9.63-3.53C470.28,120.2,469.23,120.52,468.46,121.15z"/>
		<path class="st0" d="M505.59,121.15c-0.77,0.63-1.15,1.47-1.15,2.51c0,1.04,0.47,1.87,1.41,2.48c0.94,0.62,3.11,1.34,6.5,2.18
			c3.4,0.84,6.03,2.09,7.91,3.76c1.88,1.67,2.82,4.12,2.82,7.32s-1.2,5.81-3.61,7.81c-2.41,2-5.58,3-9.5,3
			c-5.67,0-10.77-2.1-15.31-6.3l4.76-5.84c3.86,3.38,7.43,5.07,10.71,5.07c1.47,0,2.62-0.32,3.46-0.95
			c0.84-0.63,1.25-1.49,1.25-2.56c0-1.08-0.44-1.93-1.33-2.56c-0.89-0.63-2.65-1.27-5.28-1.92c-4.17-0.99-7.21-2.28-9.14-3.87
			c-1.93-1.59-2.89-4.08-2.89-7.48s1.22-6.02,3.66-7.86s5.49-2.77,9.14-2.77c2.39,0,4.78,0.41,7.17,1.23
			c2.39,0.82,4.47,1.98,6.25,3.48l-4.05,5.84c-3.11-2.36-6.32-3.53-9.63-3.53C507.41,120.2,506.36,120.52,505.59,121.15z"/>
		<path class="st0" d="M534.35,114h7.99v35.8h-7.99V114z"/>
		<path class="st0" d="M585.72,144.86c-3.62,3.53-8.08,5.3-13.37,5.3c-5.29,0-9.75-1.77-13.37-5.3c-3.62-3.53-5.43-7.93-5.43-13.19
			c0-5.26,1.81-9.65,5.43-13.19c3.62-3.53,8.07-5.3,13.37-5.3c5.29,0,9.75,1.77,13.37,5.3c3.62,3.53,5.43,7.93,5.43,13.19
			C591.15,136.93,589.34,141.33,585.72,144.86z M583,131.7c0-3.19-1.02-5.92-3.07-8.17c-2.05-2.25-4.57-3.38-7.55-3.38
			c-2.99,0-5.51,1.13-7.55,3.38c-2.05,2.25-3.07,4.98-3.07,8.17s1.02,5.91,3.07,8.14c2.05,2.24,4.57,3.36,7.55,3.36
			c2.99,0,5.51-1.12,7.55-3.36C581.98,137.61,583,134.89,583,131.7z"/>
		<path class="st0" d="M627.41,114h7.99v35.8h-7.99l-17.05-22.43v22.43h-7.99V114h7.48l17.57,23.05V114z"/>
		<path class="st0" d="M674.17,149.8l-3.33-7.73h-15.01l-3.33,7.73H644l15.47-35.8h7.73l15.47,35.8H674.17z M663.36,124.66
			l-4.51,10.4h8.96L663.36,124.66z"/>
		<path class="st0" d="M691.27,149.8V114h7.99v28.68h15.26v7.12H691.27z"/>
		<path class="st0" d="M733.19,121.15c-0.77,0.63-1.15,1.47-1.15,2.51c0,1.04,0.47,1.87,1.41,2.48c0.94,0.62,3.11,1.34,6.5,2.18
			c3.4,0.84,6.03,2.09,7.91,3.76c1.88,1.67,2.82,4.12,2.82,7.32s-1.2,5.81-3.61,7.81c-2.41,2-5.58,3-9.5,3
			c-5.67,0-10.77-2.1-15.31-6.3l4.76-5.84c3.86,3.38,7.43,5.07,10.71,5.07c1.47,0,2.62-0.32,3.46-0.95
			c0.84-0.63,1.25-1.49,1.25-2.56c0-1.08-0.44-1.93-1.33-2.56c-0.89-0.63-2.65-1.27-5.28-1.92c-4.17-0.99-7.21-2.28-9.14-3.87
			c-1.93-1.59-2.89-4.08-2.89-7.48s1.22-6.02,3.66-7.86s5.49-2.77,9.14-2.77c2.39,0,4.78,0.41,7.17,1.23
			c2.39,0.82,4.47,1.98,6.25,3.48l-4.05,5.84c-3.11-2.36-6.32-3.53-9.63-3.53C735.01,120.2,733.96,120.52,733.19,121.15z"/>
	</g>
</g>
</svg>
